<?xml version="1.0" encoding="UTF-8" standalone="no"?><!DOCTYPE svg PUBLIC "-//W3C//DTD SVG 1.1//EN" "http://www.w3.org/Graphics/SVG/1.1/DTD/svg11.dtd"><svg width="100%" height="100%" viewBox="0 0 244 104" version="1.1" xmlns="http://www.w3.org/2000/svg" xmlns:xlink="http://www.w3.org/1999/xlink" xml:space="preserve" xmlns:serif="http://www.serif.com/" style="fill-rule:evenodd;clip-rule:evenodd;stroke-linecap:round;stroke-linejoin:round;stroke-miterlimit:1.5;"><g id="Layer-1" serif:id="Layer 1"><path d="M4,4l18.88,0l28.32,48l18.88,-32l18.88,32l28.32,-48l75.52,0l-9.44,16l-37.76,0l9.44,16l18.88,0l-9.44,16l37.76,0l-9.44,16l-37.76,0l-9.44,-16l-37.76,0l-9.44,16l-18.88,0l-9.44,-16l-9.44,16l-18.88,0l-37.76,-64Z" style="fill:#04c2ff;stroke:#f2f2f2;stroke-width:1px;"/><path d="M202.24,84l-9.44,-16l-37.76,0l9.44,16l37.76,0Z" style="fill:#777;stroke:#f2f2f2;stroke-width:1px;"/><path d="M192.8,68l9.44,16l9.44,-16l-9.44,-16l-9.44,16Z" style="fill:#aaa;stroke:#f2f2f2;stroke-width:1px;"/><path d="M221.12,52l9.44,-16l-25.729,0l-30.911,0l-9.44,16l56.64,0" style="fill:#ccc;stroke:#f2f2f2;stroke-width:1px;"/><path d="M192.8,4l9.44,16l-9.44,16l-9.44,-16l9.44,-16Z" style="fill:#aaa;stroke:#f2f2f2;stroke-width:1px;"/><path d="M79.52,68l-9.44,-16l-9.44,16l9.44,16l9.44,-16Z" style="fill:#aaa;stroke:#f2f2f2;stroke-width:1px;"/><path d="M126.72,20l-9.44,16l18.88,0l-9.44,-16" style="fill:#777;stroke:#f2f2f2;stroke-width:1px;"/><path d="M183.36,20l-37.76,0l9.44,16l37.76,0l-9.44,-16Z" style="fill:#777;stroke:#f2f2f2;stroke-width:1px;"/><path d="M230.56,36l9.44,16l-9.44,16l-9.44,-16l9.44,-16Z" style="fill:#aaa;stroke:#f2f2f2;stroke-width:1px;"/><path d="M202.24,52l9.44,16l18.88,0l-9.44,-16l-18.88,0Z" style="fill:#777;stroke:#f2f2f2;stroke-width:1px;"/><path d="M136.16,68l-56.64,0l-9.44,16l56.64,0l9.44,-16Z" style="fill:#ccc;stroke:#f2f2f2;stroke-width:1px;"/><path d="M107.84,52l9.44,16l-9.44,16l-9.44,-16l9.44,-16Z" style="fill:#aaa;stroke:#f2f2f2;stroke-width:1px;"/><path d="M155.04,68l-9.44,-16l-37.76,0l9.44,16l37.76,0Z" style="fill:#777;stroke:#f2f2f2;stroke-width:1px;"/><path d="M79.52,68l9.44,16l18.88,0l-9.44,-16l-18.88,0Z" style="fill:#777;stroke:#f2f2f2;stroke-width:1px;"/><path d="M136.16,68l9.44,16l-9.44,16l-9.44,-16l9.44,-16Z" style="fill:#aaa;stroke:#f2f2f2;stroke-width:1px;"/><path d="M70.08,84l-18.88,0l-9.44,-16l18.88,0l9.44,16Z" style="fill:#777;stroke:#f2f2f2;stroke-width:1px;"/><path d="M136.16,100l-9.44,-16l-56.64,0l9.44,16l56.64,0Z" style="fill:#777;stroke:#f2f2f2;stroke-width:1px;"/><path d="M22.88,4l18.88,0l18.88,32l-9.44,16l-28.32,-48Z" style="fill:#aaa;stroke:#f2f2f2;stroke-width:1px;"/><path d="M70.08,20l18.88,0l9.44,16l-9.44,16l-18.88,-32Z" style="fill:#aaa;stroke:#f2f2f2;stroke-width:1px;"/></g></svg>