<svg version="1" xmlns="http://www.w3.org/2000/svg" width="1920" height="1920" viewBox="0 0 1440.000000 1440.000000"><path d="M0 720v720h1440V0H0v720zm275.8-233.3c30.1 46.1 85.8 131.3 91.1 139.5 3.5 5.4 6.4 9.8 6.6 9.8.1 0 12.1-18 26.6-40l26.3-40H537l17.3 26.2c9.4 14.5 21.3 32.6 26.4 40.2l9.1 13.9 12.9-19.7c7-10.8 18.7-28.6 25.9-39.6 7.2-11 25.4-38.9 40.5-62l27.4-42 217.8.3 217.9.2 27 41c14.9 22.5 27.2 41.5 27.5 42.1.2.6-11.3 19.3-25.6 41.5l-25.9 40.4 106.5.5 106.5.5 27.4 41.5c15 22.8 27.4 42 27.4 42.6 0 .6-12.3 20.2-27.3 43.5l-27.2 42.4-54.4.5-54.4.5-26.7 41-26.6 41-110 .2-109.9.2-25.5-39.5c-14-21.7-26.2-40.3-27-41.4-1.5-2-2.5-2-51.8-1.8l-50.3.3 6.7 10.5c3.7 5.8 15.2 23.7 25.5 39.8l18.8 29.2-27.7 43.3-27.8 43.2-163.2.3-163.1.2-2.4-3.2c-1.3-1.8-13.8-20.7-27.8-42L425.5 893l-53.9-.2-53.9-.3-131.4-202C114.1 579.4 52.7 485 50 480.7l-5-7.7h221.8l9 13.7z"/><path d="M865 561c0 1.7 12.2 19.5 13.2 19.2.5-.1.7.2.4.7-.4.5 7.8 13.8 18 29.5l18.6 28.6h105.4c100.2 0 105.4-.1 104.5-1.8-.6-.9-12-18.6-25.4-39.2l-24.4-37.5-105.1-.2c-64.8-.1-105.2.1-105.2.7zM652.1 733.5c2.3 3.6 4.6 6.2 5.2 5.8.5-.3.7-.1.3.5-.3.6 8.9 15.7 20.5 33.6l21.2 32.6h210.9l-2.3-3.8c-9.4-15.2-25.3-38.7-26.1-38.4-.5.1-.7-.2-.4-.7.4-.5-4.5-8.9-10.9-18.5L859 727H648.1l4 6.5zM1202.8 747.2c22.2 35.2 35 55.2 36.4 57.1 1.2 1.6 4.6 1.7 52.5 1.5l51.1-.3-24.8-39-24.8-39-51.6-.3-51.6-.2 12.8 20.2zM1019 809.1c-32.2.3-67.8.7-79.2.8-13.9.1-20.8.5-20.8 1.2 0 .5.4.8.9.5.5-.3.8 0 .7.7 0 .6 10.9 18.2 24.4 38.9l24.5 37.8h105.3c57.8 0 105.2-.3 105.2-.6 0-1.8-28.6-45.2-29.4-44.7-.5.3-.6.1-.2-.5.3-.5-3.1-6.8-7.5-13.9-4.5-7-9.4-14.7-10.8-17.1l-2.6-4.2-26 .2c-14.3.1-52.3.5-84.5.9zM270 810.5c0 1.5 31.9 49.3 32.5 48.7.3-.4.5-.2.3.5-.1.7 3.8 7.5 8.7 15.2l9 14 51.3.1H423l-2.7-4.4c-1.6-2.4-12.9-20.2-25.3-39.5L372.5 810h-51.2c-28.2 0-51.3.2-51.3.5zM487.6 813c1 1.6 12.2 19.1 24.9 38.7l23.1 35.8 51.2.3c34.3.1 51.2-.1 51.2-.8 0-1.8-11.2-18-12.1-17.4-.5.3-.7-.1-.4-.8.2-.7-8.1-14.1-18.4-29.8l-18.7-28.5-51.3-.3-51.2-.2 1.7 3zM596.5 892.1c-58.3.5-119.4 1-135.7 1.1l-29.7.3 12.5 19c6.9 10.4 13 18.9 13.4 18.8.4-.1.7.3.6 1 0 .7 5.5 9.8 12.4 20.4l12.5 19.2 159.8.1h159.9l-2.1-3.3c-1.2-1.7-12.8-20-25.8-40.5L750.7 891l-24.1.2c-13.2.1-71.8.5-130.1.9z"/></svg>