<?xml version="1.0" encoding="UTF-8" standalone="no"?>
<!DOCTYPE svg PUBLIC "-//W3C//DTD SVG 1.1//EN" "http://www.w3.org/Graphics/SVG/1.1/DTD/svg11.dtd">
<svg width="100%" height="100%" viewBox="0 0 452 124" version="1.1" xmlns="http://www.w3.org/2000/svg" xmlns:xlink="http://www.w3.org/1999/xlink" xml:space="preserve" xmlns:serif="http://www.serif.com/" style="fill-rule:evenodd;clip-rule:evenodd;stroke-linecap:round;stroke-linejoin:round;stroke-miterlimit:1.5;">
    <g id="Logo" transform="matrix(1.04032,0,0,1,15.8387,-24)">
        <g transform="matrix(0.968992,0,0,0.9375,5.89147,36.25)">
            <path d="M4,4L23.84,4L53.6,52L73.44,20L93.28,52L123.04,4L202.4,4L192.48,20L152.8,20L162.72,36L182.56,36L172.64,52L212.32,52L202.4,68L162.72,68L152.8,52L113.12,52L103.2,68L83.36,68L73.44,52L63.52,68L43.68,68L4,4Z" style="fill:rgb(4,194,255);stroke:white;stroke-width:1px;"/>
        </g>
        <g transform="matrix(0.968992,0,0,0.9375,5.89147,36.25)">
            <path d="M212.32,84L202.4,68L162.72,68L172.64,84L212.32,84Z" style="fill:rgb(55,65,81);stroke:white;stroke-width:1px;"/>
        </g>
        <g transform="matrix(0.968992,0,0,0.9375,5.89147,36.25)">
            <path d="M202.4,68L212.32,84L222.24,68L212.32,52L202.4,68Z" style="fill:rgb(75,85,99);stroke:white;stroke-width:1px;"/>
        </g>
        <g transform="matrix(0.968992,0,0,0.9375,5.89147,36.25)">
            <path d="M232.16,52L242.08,36L182.56,36L172.64,52L232.16,52" style="fill:rgb(156,163,175);stroke:white;stroke-width:1px;"/>
        </g>
        <g transform="matrix(0.968992,0,0,0.9375,5.89147,36.25)">
            <path d="M202.4,4L212.32,20L202.4,36L192.48,20L202.4,4Z" style="fill:rgb(75,85,99);stroke:white;stroke-width:1px;"/>
        </g>
        <g transform="matrix(0.968992,0,0,0.9375,5.89147,36.25)">
            <path d="M83.36,68L73.44,52L63.52,68L73.44,84L83.36,68Z" style="fill:rgb(75,85,99);stroke:white;stroke-width:1px;"/>
        </g>
        <g transform="matrix(0.968992,0,0,0.9375,5.89147,36.25)">
            <path d="M132.96,20L123.04,36L142.88,36L132.96,20" style="fill:rgb(75,85,99);stroke:white;stroke-width:1px;"/>
        </g>
        <g transform="matrix(0.968992,0,0,0.9375,5.89147,36.25)">
            <path d="M192.48,20L152.8,20L162.72,36L202.4,36L192.48,20Z" style="fill:rgb(55,65,81);stroke:white;stroke-width:1px;"/>
        </g>
        <g transform="matrix(0.968992,0,0,0.9375,5.89147,36.25)">
            <path d="M212.32,52L222.24,68L242.08,68L232.16,52L212.32,52Z" style="fill:rgb(55,65,81);stroke:white;stroke-width:1px;"/>
        </g>
        <g transform="matrix(0.968992,0,0,0.9375,5.89147,36.25)">
            <path d="M142.88,68L83.36,68L73.44,84L132.96,84L142.88,68Z" style="fill:rgb(156,163,175);stroke:white;stroke-width:1px;"/>
        </g>
        <g transform="matrix(0.968992,0,0,0.9375,5.89147,36.25)">
            <path d="M113.12,52L123.04,68L113.12,84L103.2,68L113.12,52Z" style="fill:rgb(75,85,99);stroke:white;stroke-width:1px;"/>
        </g>
        <g transform="matrix(0.968992,0,0,0.9375,5.89147,36.25)">
            <path d="M162.72,68L152.8,52L113.12,52L123.04,68L162.72,68Z" style="fill:rgb(55,65,81);stroke:white;stroke-width:1px;"/>
        </g>
        <g transform="matrix(0.968992,0,0,0.9375,5.89147,36.25)">
            <path d="M83.36,68L93.28,84L113.12,84L103.2,68L83.36,68Z" style="fill:rgb(55,65,81);stroke:white;stroke-width:1px;"/>
        </g>
        <g transform="matrix(0.968992,0,0,0.9375,5.89147,36.25)">
            <path d="M142.88,68L152.8,84L142.88,100L132.96,84L142.88,68Z" style="fill:rgb(75,85,99);stroke:white;stroke-width:1px;"/>
        </g>
        <g transform="matrix(0.968992,0,0,0.9375,102.016,6.25)">
            <path d="M142.88,68L152.8,84L142.88,100L132.96,84L142.88,68Z" style="fill:rgb(75,85,99);stroke:white;stroke-width:1px;"/>
        </g>
        <g transform="matrix(0.968992,0,0,0.9375,5.89147,36.25)">
            <path d="M73.44,84L53.6,84L43.68,68L63.52,68L73.44,84Z" style="fill:rgb(55,65,81);stroke:white;stroke-width:1px;"/>
        </g>
        <g transform="matrix(0.968992,0,0,0.9375,5.89147,36.25)">
            <path d="M142.88,100L132.96,84L73.44,84L83.36,100L142.88,100Z" style="fill:rgb(55,65,81);stroke:white;stroke-width:1px;"/>
        </g>
        <g transform="matrix(0.968992,0,0,0.9375,5.89147,36.25)">
            <path d="M23.84,4L43.68,4L63.52,36L53.6,52L23.84,4Z" style="fill:rgb(75,85,99);stroke:white;stroke-width:1px;"/>
        </g>
        <g transform="matrix(0.968992,0,0,0.9375,5.89147,36.25)">
            <path d="M73.44,20L93.28,20L103.2,36L93.28,52L73.44,20Z" style="fill:rgb(75,85,99);stroke:white;stroke-width:1px;"/>
        </g>
    </g>
    <g id="Block" transform="matrix(1,0,0,1,-40,-2)">
        <g transform="matrix(1.00806,0,0,0.9375,101.968,-15.75)">
            <path d="M232.16,52L242.08,36L222.24,36L212.32,52L232.16,52" style="fill:rgb(156,163,175);stroke:white;stroke-width:1px;"/>
        </g>
        <g transform="matrix(1.00806,0,0,0.9375,101.968,-15.75)">
            <path d="M212.32,52L222.24,68L242.08,68L232.16,52L212.32,52Z" style="fill:rgb(55,65,81);stroke:white;stroke-width:1px;"/>
        </g>
        <g transform="matrix(1.00806,0,0,0.9375,201.968,-45.75)">
            <path d="M142.88,68L152.8,84L142.88,100L132.96,84L142.88,68Z" style="fill:rgb(75,85,99);stroke:white;stroke-width:1px;"/>
        </g>
    </g>
    <g id="Block1" serif:id="Block" transform="matrix(1,0,0,1,-300,58)">
        <g transform="matrix(1.00806,0,0,0.9375,101.968,-15.75)">
            <path d="M232.16,52L242.08,36L222.24,36L212.32,52L232.16,52" style="fill:rgb(156,163,175);stroke:white;stroke-width:1px;"/>
        </g>
        <g transform="matrix(1.00806,0,0,0.9375,101.968,-15.75)">
            <path d="M212.32,52L222.24,68L242.08,68L232.16,52L212.32,52Z" style="fill:rgb(55,65,81);stroke:white;stroke-width:1px;"/>
        </g>
        <g transform="matrix(1.00806,0,0,0.9375,201.968,-45.75)">
            <path d="M142.88,68L152.8,84L142.88,100L132.96,84L142.88,68Z" style="fill:rgb(75,85,99);stroke:white;stroke-width:1px;"/>
        </g>
    </g>
    <g id="Block2" serif:id="Block" transform="matrix(1,0,0,1,40,28)">
        <g transform="matrix(1.00806,0,0,0.9375,121.968,-15.75)">
            <path d="M252,52L261.92,36L162.72,36L152.8,52L252,52" style="fill:rgb(156,163,175);stroke:white;stroke-width:1px;"/>
        </g>
        <g transform="matrix(1.00806,0,0,0.9375,121.968,-15.75)">
            <path d="M152.8,52L162.72,68L261.92,68L252,52L152.8,52Z" style="fill:rgb(55,65,81);stroke:white;stroke-width:1px;"/>
        </g>
        <g transform="matrix(1.00806,0,0,0.9375,221.968,-45.75)">
            <path d="M162.72,68L172.64,84L162.72,100L152.8,84L162.72,68Z" style="fill:rgb(75,85,99);stroke:white;stroke-width:1px;"/>
        </g>
    </g>
    <g transform="matrix(0.574618,0,0,0.574618,62.9883,57.3073)">
        <g transform="matrix(27.8446,0,0,27.8446,223,95)">
            <path d="M0.696,-0.262L0.872,-0.735L0.991,-0.735L0.705,-0L0.691,-0L0.491,-0.476L0.292,-0.001L0.278,-0.001L-0.008,-0.735L0.111,-0.735L0.287,-0.262L0.489,-0.739L0.495,-0.739L0.696,-0.262Z" style="fill:white;fill-rule:nonzero;"/>
        </g>
        <g transform="matrix(27.8446,0,0,27.8446,250.371,95)">
            <path d="M0.077,-0.735L0.399,-0.735L0.399,-0.637L0.188,-0.637L0.188,-0.434L0.358,-0.434L0.358,-0.334L0.188,-0.334L0.188,-0.099L0.432,-0.099L0.432,-0L0.077,-0L0.077,-0.735Z" style="fill:white;fill-rule:nonzero;"/>
        </g>
        <g transform="matrix(27.8446,0,0,27.8446,270.197,95)">
            <path d="M0.347,-0.736L0.701,-0L0.572,-0L0.509,-0.144L0.172,-0.144L0.109,-0L-0.016,-0L0.336,-0.736L0.347,-0.736ZM0.297,-0.423L0.217,-0.245L0.465,-0.245L0.386,-0.422L0.343,-0.523L0.341,-0.523L0.297,-0.423Z" style="fill:white;fill-rule:nonzero;"/>
        </g>
        <g transform="matrix(27.8446,0,0,27.8446,288.435,95)">
            <path d="M0.412,0.007C0.336,0.007 0.27,-0.01 0.215,-0.044C0.159,-0.078 0.116,-0.124 0.087,-0.181C0.058,-0.238 0.043,-0.3 0.043,-0.369C0.043,-0.442 0.059,-0.507 0.091,-0.564C0.122,-0.621 0.167,-0.666 0.224,-0.699C0.281,-0.731 0.346,-0.747 0.419,-0.747C0.452,-0.747 0.482,-0.744 0.511,-0.737C0.539,-0.729 0.562,-0.721 0.581,-0.713C0.6,-0.704 0.612,-0.696 0.618,-0.69L0.569,-0.59C0.528,-0.626 0.475,-0.644 0.41,-0.644C0.364,-0.644 0.322,-0.633 0.285,-0.61C0.248,-0.587 0.218,-0.555 0.197,-0.513C0.176,-0.471 0.165,-0.422 0.165,-0.367C0.165,-0.316 0.175,-0.27 0.194,-0.229C0.213,-0.188 0.24,-0.155 0.277,-0.131C0.314,-0.107 0.357,-0.095 0.408,-0.095C0.467,-0.095 0.523,-0.112 0.578,-0.145L0.611,-0.05C0.596,-0.037 0.57,-0.024 0.531,-0.012C0.492,0.001 0.452,0.007 0.412,0.007Z" style="fill:white;fill-rule:nonzero;"/>
        </g>
        <g transform="matrix(27.8446,0,0,27.8446,305.671,95)">
            <path d="M0.412,0.007C0.336,0.007 0.27,-0.01 0.215,-0.044C0.159,-0.078 0.116,-0.124 0.087,-0.181C0.058,-0.238 0.043,-0.3 0.043,-0.369C0.043,-0.442 0.059,-0.507 0.091,-0.564C0.122,-0.621 0.167,-0.666 0.224,-0.699C0.281,-0.731 0.346,-0.747 0.419,-0.747C0.452,-0.747 0.482,-0.744 0.511,-0.737C0.539,-0.729 0.562,-0.721 0.581,-0.713C0.6,-0.704 0.612,-0.696 0.618,-0.69L0.569,-0.59C0.528,-0.626 0.475,-0.644 0.41,-0.644C0.364,-0.644 0.322,-0.633 0.285,-0.61C0.248,-0.587 0.218,-0.555 0.197,-0.513C0.176,-0.471 0.165,-0.422 0.165,-0.367C0.165,-0.316 0.175,-0.27 0.194,-0.229C0.213,-0.188 0.24,-0.155 0.277,-0.131C0.314,-0.107 0.357,-0.095 0.408,-0.095C0.467,-0.095 0.523,-0.112 0.578,-0.145L0.611,-0.05C0.596,-0.037 0.57,-0.024 0.531,-0.012C0.492,0.001 0.452,0.007 0.412,0.007Z" style="fill:white;fill-rule:nonzero;"/>
        </g>
        <g transform="matrix(27.8446,0,0,27.8446,323.742,95)">
            <rect x="0.091" y="-0.735" width="0.112" height="0.735" style="fill:white;fill-rule:nonzero;"/>
        </g>
        <g transform="matrix(27.8446,0,0,27.8446,331.928,95)">
            <path d="M0.078,-0.735L0.255,-0.735C0.403,-0.735 0.507,-0.7 0.566,-0.63C0.624,-0.56 0.654,-0.477 0.654,-0.38C0.654,-0.313 0.641,-0.251 0.616,-0.194C0.591,-0.136 0.549,-0.09 0.491,-0.054C0.432,-0.018 0.356,-0 0.261,-0L0.078,-0L0.078,-0.735ZM0.273,-0.099C0.365,-0.099 0.432,-0.125 0.474,-0.178C0.515,-0.23 0.536,-0.296 0.536,-0.375C0.536,-0.452 0.515,-0.515 0.473,-0.564C0.431,-0.613 0.364,-0.637 0.273,-0.637L0.19,-0.637L0.19,-0.099L0.273,-0.099Z" style="fill:white;fill-rule:nonzero;"/>
        </g>
        <g transform="matrix(27.8446,0,0,27.8446,351.085,95)">
            <path d="M0.077,-0.735L0.399,-0.735L0.399,-0.637L0.188,-0.637L0.188,-0.434L0.358,-0.434L0.358,-0.334L0.188,-0.334L0.188,-0.099L0.432,-0.099L0.432,-0L0.077,-0L0.077,-0.735Z" style="fill:white;fill-rule:nonzero;"/>
        </g>
        <g transform="matrix(27.8446,0,0,27.8446,364.089,95)">
            <path d="M0.187,-0.476L0.19,-0.396L0.19,-0L0.078,-0L0.078,-0.736L0.092,-0.736L0.524,-0.254L0.52,-0.338L0.52,-0.735L0.632,-0.735L0.632,-0L0.617,-0L0.187,-0.476Z" style="fill:white;fill-rule:nonzero;"/>
        </g>
        <g transform="matrix(27.8446,0,0,27.8446,383.858,95)">
            <path d="M0.218,-0.637L0.03,-0.637L0.03,-0.735L0.519,-0.735L0.519,-0.637L0.329,-0.637L0.329,-0L0.218,-0L0.218,-0.637Z" style="fill:white;fill-rule:nonzero;"/>
        </g>
        <g transform="matrix(27.8446,0,0,27.8446,397.474,95)">
            <path d="M0.347,-0.736L0.701,-0L0.572,-0L0.509,-0.144L0.172,-0.144L0.109,-0L-0.016,-0L0.336,-0.736L0.347,-0.736ZM0.297,-0.423L0.217,-0.245L0.465,-0.245L0.386,-0.422L0.343,-0.523L0.341,-0.523L0.297,-0.423Z" style="fill:white;fill-rule:nonzero;"/>
        </g>
        <g transform="matrix(27.8446,0,0,27.8446,416.548,95)">
            <path d="M0.078,-0.735L0.191,-0.735L0.191,-0.1L0.402,-0.1L0.402,-0L0.078,-0L0.078,-0.735Z" style="fill:white;fill-rule:nonzero;"/>
        </g>
        <g transform="matrix(27.8446,0,0,27.8446,428.577,95)">
            <path d="M0.078,-0.735L0.191,-0.735L0.191,-0.1L0.402,-0.1L0.402,-0L0.078,-0L0.078,-0.735Z" style="fill:white;fill-rule:nonzero;"/>
        </g>
        <g transform="matrix(27.8446,0,0,27.8446,440.606,95)">
            <path d="M0.239,-0.343L-0.016,-0.735L0.118,-0.735L0.295,-0.445L0.472,-0.735L0.605,-0.735L0.351,-0.341L0.351,-0L0.239,-0L0.239,-0.343Z" style="fill:white;fill-rule:nonzero;"/>
        </g>
        <g transform="matrix(27.8446,0,0,27.8446,463.828,95)">
            <path d="M0.077,-0.735L0.399,-0.735L0.399,-0.637L0.188,-0.637L0.188,-0.434L0.358,-0.434L0.358,-0.334L0.188,-0.334L0.188,-0.099L0.432,-0.099L0.432,-0L0.077,-0L0.077,-0.735Z" style="fill:rgb(4,194,255);fill-rule:nonzero;"/>
        </g>
        <g transform="matrix(27.8446,0,0,27.8446,476.831,95)">
            <path d="M-0.016,-0.735L0.111,-0.735L0.331,-0.23L0.552,-0.735L0.678,-0.735L0.339,-0L0.324,-0L-0.016,-0.735Z" style="fill:rgb(4,194,255);fill-rule:nonzero;"/>
        </g>
        <g transform="matrix(27.8446,0,0,27.8446,495.265,95)">
            <path d="M0.077,-0.735L0.399,-0.735L0.399,-0.637L0.188,-0.637L0.188,-0.434L0.358,-0.434L0.358,-0.334L0.188,-0.334L0.188,-0.099L0.432,-0.099L0.432,-0L0.077,-0L0.077,-0.735Z" style="fill:rgb(4,194,255);fill-rule:nonzero;"/>
        </g>
        <g transform="matrix(27.8446,0,0,27.8446,508.268,95)">
            <path d="M0.445,-0L0.297,-0.278C0.266,-0.277 0.239,-0.276 0.215,-0.276L0.187,-0.276L0.187,-0L0.078,-0L0.078,-0.735L0.245,-0.735C0.33,-0.735 0.399,-0.717 0.454,-0.683C0.509,-0.648 0.536,-0.591 0.536,-0.512C0.536,-0.463 0.525,-0.42 0.502,-0.385C0.479,-0.349 0.444,-0.321 0.399,-0.302L0.574,-0L0.445,-0ZM0.258,-0.367C0.323,-0.367 0.368,-0.381 0.393,-0.41C0.417,-0.438 0.429,-0.472 0.429,-0.511C0.429,-0.598 0.371,-0.642 0.254,-0.642L0.187,-0.642L0.187,-0.367L0.258,-0.367Z" style="fill:rgb(4,194,255);fill-rule:nonzero;"/>
        </g>
        <g transform="matrix(27.8446,0,0,27.8446,525.253,95)">
            <path d="M0.239,-0.343L-0.016,-0.735L0.118,-0.735L0.295,-0.445L0.472,-0.735L0.605,-0.735L0.351,-0.341L0.351,-0L0.239,-0L0.239,-0.343Z" style="fill:rgb(4,194,255);fill-rule:nonzero;"/>
        </g>
        <g transform="matrix(27.8446,0,0,27.8446,541.654,95)">
            <path d="M0.218,-0.637L0.03,-0.637L0.03,-0.735L0.519,-0.735L0.519,-0.637L0.329,-0.637L0.329,-0L0.218,-0L0.218,-0.637Z" style="fill:rgb(4,194,255);fill-rule:nonzero;"/>
        </g>
        <g transform="matrix(27.8446,0,0,27.8446,556.94,95)">
            <path d="M0.077,-0.735L0.189,-0.735L0.189,-0.435L0.448,-0.435L0.448,-0.735L0.56,-0.735L0.56,-0L0.448,-0L0.448,-0.341L0.189,-0.341L0.189,-0L0.077,-0L0.077,-0.735Z" style="fill:rgb(4,194,255);fill-rule:nonzero;"/>
        </g>
        <g transform="matrix(27.8446,0,0,27.8446,574.677,95)">
            <rect x="0.091" y="-0.735" width="0.112" height="0.735" style="fill:rgb(4,194,255);fill-rule:nonzero;"/>
        </g>
        <g transform="matrix(27.8446,0,0,27.8446,582.864,95)">
            <path d="M0.187,-0.476L0.19,-0.396L0.19,-0L0.078,-0L0.078,-0.736L0.092,-0.736L0.524,-0.254L0.52,-0.338L0.52,-0.735L0.632,-0.735L0.632,-0L0.617,-0L0.187,-0.476Z" style="fill:rgb(4,194,255);fill-rule:nonzero;"/>
        </g>
        <g transform="matrix(27.8446,0,0,27.8446,602.633,95)">
            <path d="M0.421,0.01C0.348,0.01 0.283,-0.007 0.226,-0.04C0.169,-0.073 0.124,-0.119 0.092,-0.178C0.059,-0.236 0.043,-0.301 0.043,-0.374C0.043,-0.445 0.059,-0.508 0.092,-0.565C0.125,-0.622 0.17,-0.666 0.228,-0.698C0.286,-0.73 0.351,-0.746 0.424,-0.746C0.463,-0.746 0.499,-0.743 0.531,-0.736C0.562,-0.729 0.588,-0.721 0.608,-0.712C0.628,-0.703 0.642,-0.695 0.649,-0.688L0.605,-0.594C0.564,-0.627 0.503,-0.644 0.422,-0.644C0.369,-0.644 0.322,-0.632 0.283,-0.609C0.244,-0.586 0.214,-0.554 0.193,-0.514C0.172,-0.474 0.162,-0.429 0.162,-0.38C0.162,-0.324 0.173,-0.274 0.196,-0.23C0.218,-0.186 0.249,-0.152 0.289,-0.128C0.328,-0.103 0.373,-0.091 0.423,-0.091C0.454,-0.091 0.484,-0.095 0.513,-0.103C0.542,-0.11 0.566,-0.122 0.586,-0.139L0.586,-0.281L0.435,-0.281L0.435,-0.384L0.697,-0.384L0.697,-0.096C0.673,-0.066 0.637,-0.041 0.589,-0.021C0.54,-0 0.484,0.01 0.421,0.01Z" style="fill:rgb(4,194,255);fill-rule:nonzero;"/>
        </g>
    </g>
</svg>
