<?xml version="1.0" standalone="no"?>
<!DOCTYPE svg PUBLIC "-//W3C//DTD SVG 20010904//EN"
 "http://www.w3.org/TR/2001/REC-SVG-20010904/DTD/svg10.dtd">
<svg version="1.0" xmlns="http://www.w3.org/2000/svg"
 width="2080.000000pt" height="2080.000000pt" viewBox="0 0 2080.000000 2080.000000"
 preserveAspectRatio="xMidYMid meet">
<metadata>
Created by potrace 1.14, written by Peter Selinger 2001-2017
</metadata>
<g transform="translate(0.000000,2080.000000) scale(0.100000,-0.100000)"
fill="#000000" stroke="none">
<path d="M803 14042 c-6 -4 -100 -6 -210 -6 -109 1 -206 -3 -215 -8 -27 -14
-22 -33 30 -109 26 -39 52 -78 57 -87 39 -64 191 -288 197 -290 4 -2 8 -10 8
-18 0 -8 5 -14 10 -14 6 0 10 -5 10 -10 0 -10 38 -69 51 -80 3 -3 8 -9 10 -15
5 -14 142 -219 150 -225 3 -3 8 -9 10 -15 8 -20 284 -430 291 -433 4 -2 8 -7
8 -12 0 -10 82 -134 92 -138 4 -2 8 -10 8 -18 0 -8 5 -14 10 -14 6 0 10 -5 10
-10 0 -10 38 -69 51 -80 3 -3 8 -9 10 -15 2 -5 40 -63 84 -128 44 -65 89 -133
100 -151 51 -82 361 -541 367 -544 5 -2 8 -10 8 -18 0 -8 5 -14 10 -14 6 0 10
-5 10 -10 0 -10 38 -69 51 -80 3 -3 8 -9 10 -15 8 -19 144 -220 151 -223 5 -2
8 -8 8 -13 0 -10 62 -103 72 -107 5 -2 8 -10 8 -18 0 -8 5 -14 10 -14 6 0 10
-5 10 -10 0 -10 38 -69 51 -80 3 -3 8 -9 10 -15 8 -20 544 -820 551 -823 5 -2
8 -10 8 -18 0 -8 5 -14 10 -14 6 0 10 -4 10 -10 0 -5 19 -37 43 -70 23 -33 47
-68 52 -78 33 -55 191 -288 197 -290 4 -2 8 -10 8 -18 0 -8 5 -14 10 -14 6 0
10 -5 10 -10 0 -10 38 -69 51 -80 3 -3 8 -9 10 -15 5 -14 142 -219 150 -225 3
-3 8 -10 10 -15 8 -20 284 -430 291 -433 5 -2 8 -7 8 -12 0 -10 82 -134 92
-138 4 -2 8 -10 8 -18 0 -8 5 -14 10 -14 6 0 10 -5 10 -10 0 -12 41 -73 53
-78 4 -2 7 -8 7 -12 0 -9 107 -170 130 -197 6 -7 8 -13 5 -13 -3 0 6 -12 20
-27 14 -15 25 -31 25 -35 0 -7 204 -313 226 -339 8 -9 11 -19 7 -22 -3 -4 0
-8 8 -9 8 -1 367 -2 799 -4 432 -1 790 -3 797 -3 10 -1 63 -70 98 -129 35 -59
571 -858 577 -860 5 -2 8 -7 8 -12 0 -10 98 -158 120 -181 9 -10 30 -15 53
-15 20 1 37 -2 37 -7 0 -4 5 -5 12 -1 16 10 468 11 468 1 0 -5 5 -5 12 -1 16
10 468 11 468 1 0 -5 5 -5 12 -1 16 10 468 11 468 1 0 -5 5 -5 12 -1 16 10
468 11 468 1 0 -5 5 -5 12 -1 16 10 1908 11 1908 1 0 -5 5 -5 12 -1 16 10 468
11 468 1 0 -5 5 -5 12 -1 7 5 107 8 222 8 l210 1 93 140 c51 77 96 145 100
150 5 6 30 44 57 85 27 41 53 77 58 78 4 2 8 8 8 14 0 11 81 131 93 136 4 2 7
8 7 14 0 6 20 39 45 75 25 35 45 68 45 73 0 4 3 10 8 12 7 3 223 324 231 343
2 6 7 12 10 15 12 10 61 90 61 99 0 14 -34 71 -42 71 -5 0 -8 4 -8 8 0 8 -297
459 -324 493 -8 9 -15 20 -17 25 -9 21 -144 219 -151 222 -4 2 -8 7 -8 12 0
11 -82 134 -92 138 -5 2 -8 7 -8 12 0 4 -25 45 -55 90 -30 46 -53 85 -50 88 9
9 168 8 188 0 9 -5 17 -5 17 -1 0 4 40 8 90 8 53 0 90 -4 90 -10 0 -7 3 -7 8
0 4 6 21 10 37 10 17 0 33 -4 37 -10 5 -7 8 -6 8 0 0 6 14 11 30 10 16 0 30
-4 30 -8 0 -5 5 -5 12 -1 18 11 118 11 118 -1 0 -7 3 -7 8 0 8 12 342 14 342
2 0 -5 5 -5 12 -1 17 11 100 12 121 2 9 -5 17 -5 17 -1 0 4 40 8 90 8 53 0 90
-4 90 -10 0 -7 3 -7 8 0 4 6 21 10 37 10 17 0 33 -4 37 -10 5 -6 8 -6 8 1 0
20 54 6 72 -18 10 -13 22 -28 26 -33 5 -6 11 -15 13 -21 5 -13 142 -218 150
-224 3 -3 8 -9 10 -15 2 -5 54 -84 114 -174 61 -90 115 -171 120 -180 6 -9 13
-18 16 -21 3 -3 8 -10 10 -15 7 -19 124 -190 132 -193 4 -2 7 -10 7 -18 0 -8
5 -14 10 -14 6 0 10 -4 10 -10 0 -5 19 -37 42 -70 24 -33 48 -68 53 -78 6 -9
24 -38 42 -63 l32 -46 1622 1 1622 1 64 95 c35 52 70 103 78 113 8 9 15 20 15
23 0 3 25 41 55 85 30 44 55 83 55 88 0 5 3 11 8 13 4 2 32 41 62 87 30 46 59
89 65 95 5 6 16 23 24 38 8 15 22 37 33 47 10 11 18 23 18 26 0 9 104 160 112
163 5 2 8 8 8 12 0 17 198 307 214 313 9 4 16 2 16 -4 0 -6 6 -7 12 -2 17 10
118 11 118 0 0 -4 8 -4 18 1 20 10 102 9 120 -2 6 -4 12 -4 12 1 0 6 246 8
365 3 6 -1 36 1 68 3 31 2 57 0 57 -5 0 -5 8 -5 18 0 20 10 102 9 120 -2 6 -4
12 -4 12 1 0 4 101 8 225 8 124 0 225 -4 225 -8 0 -4 8 -4 18 1 9 4 55 7 101
7 l85 -1 49 75 c27 42 53 78 58 79 5 2 9 8 9 13 0 10 157 247 177 267 7 7 13
20 13 28 0 8 5 14 10 14 6 0 10 7 10 15 0 8 5 15 10 15 6 0 10 7 10 15 0 8 4
15 9 15 5 0 16 16 25 35 9 19 21 35 26 35 6 0 10 5 10 10 0 6 38 67 85 136 47
70 85 128 85 130 0 3 9 14 20 26 11 12 20 28 20 35 0 7 5 13 10 13 6 0 10 7
10 15 0 8 5 15 10 15 6 0 10 6 10 14 0 8 3 16 7 18 11 4 73 97 73 107 0 5 3
11 8 13 11 5 62 86 62 98 0 13 -371 573 -382 578 -5 2 -8 8 -8 13 0 10 -62
103 -72 107 -5 2 -8 10 -8 18 0 8 -4 14 -10 14 -5 0 -10 5 -10 10 0 10 -38 69
-51 80 -3 3 -8 10 -10 15 -8 20 -204 310 -211 313 -4 2 -8 8 -8 14 0 6 -11 26
-25 44 -24 32 -28 33 -83 30 -31 -1 -65 2 -74 6 -10 5 -18 5 -18 1 0 -4 -40
-8 -90 -8 -53 0 -90 4 -90 10 0 7 -3 7 -8 0 -4 -5 -20 -10 -37 -10 -16 0 -33
5 -37 10 -5 7 -8 6 -8 0 0 -6 -13 -11 -30 -10 -16 0 -30 4 -30 8 0 5 -5 5 -12
1 -18 -11 -118 -11 -118 1 0 7 -3 7 -8 0 -8 -12 -182 -14 -182 -2 0 5 -5 5
-12 1 -18 -11 -118 -11 -118 1 0 7 -3 7 -8 0 -8 -12 -182 -14 -182 -2 0 5 -5
5 -12 1 -18 -11 -118 -11 -118 1 0 7 -3 7 -8 0 -8 -12 -182 -14 -182 -2 0 5
-5 5 -12 1 -18 -11 -118 -11 -118 1 0 7 -3 7 -8 0 -8 -12 -342 -14 -342 -2 0
5 -5 5 -12 1 -18 -11 -112 -10 -120 1 -5 7 -8 7 -8 0 0 -12 -339 -13 -358 -1
-7 4 -12 4 -12 -1 0 -4 -35 -7 -77 -5 -43 1 -82 2 -88 2 -5 0 -72 -1 -148 -2
-75 -2 -137 1 -137 5 0 5 -5 5 -12 1 -18 -11 -118 -11 -118 1 0 7 -3 7 -8 0
-7 -11 -106 -14 -116 -4 -4 3 5 23 19 43 14 20 25 41 25 46 0 6 3 10 8 10 4 0
20 23 37 50 16 28 33 50 39 50 5 0 6 3 3 7 -4 3 -1 13 7 22 7 9 96 140 196
291 101 151 187 276 192 278 4 2 8 8 8 13 0 5 50 83 110 173 61 90 110 169
110 176 0 11 -29 60 -41 70 -3 3 -8 10 -10 15 -2 6 -166 252 -364 548 -198
296 -365 546 -370 556 -28 49 -18 48 -315 47 -154 -1 -280 3 -280 7 0 5 -5 5
-12 1 -16 -10 -1908 -11 -1908 -1 0 5 -5 5 -12 1 -16 -10 -2548 -11 -2548 -1
0 4 -8 4 -17 0 -10 -5 -317 -8 -683 -6 -366 1 -674 0 -686 -2 -11 -3 -38 -30
-60 -62 -21 -32 -42 -59 -46 -61 -5 -2 -8 -8 -8 -14 0 -6 -20 -39 -45 -75 -25
-35 -45 -66 -45 -69 0 -3 -6 -12 -12 -19 -29 -32 -38 -45 -38 -53 0 -4 -10
-19 -22 -32 -13 -14 -22 -27 -21 -30 1 -3 -7 -15 -17 -28 -11 -12 -20 -25 -20
-28 0 -9 -62 -98 -74 -106 -6 -4 -7 -8 -2 -8 5 0 2 -8 -7 -17 -8 -10 -52 -74
-98 -143 -45 -69 -86 -126 -91 -128 -4 -2 -8 -8 -8 -13 0 -7 -59 -98 -243
-373 -6 -10 -18 -24 -24 -32 -7 -7 -13 -17 -13 -21 0 -5 -9 -19 -20 -31 -11
-12 -20 -24 -19 -28 0 -3 -8 -17 -20 -30 -12 -13 -21 -27 -21 -30 0 -9 -63
-99 -72 -102 -4 -2 -6 -8 -2 -13 3 -5 -2 -12 -10 -15 -9 -3 -16 -10 -16 -15 0
-12 -161 -253 -172 -257 -4 -2 -8 -8 -8 -13 0 -5 -34 -59 -75 -120 -41 -62
-75 -115 -75 -120 0 -4 -3 -9 -7 -11 -7 -3 -81 -109 -93 -133 -13 -26 -84
-125 -89 -125 -3 0 -22 24 -41 53 -19 28 -39 55 -45 59 -7 5 -7 8 0 8 6 0 6 3
0 8 -6 4 -33 41 -60 82 -27 41 -52 77 -56 80 -3 3 -8 10 -10 15 -5 14 -122
189 -130 195 -3 3 -8 10 -10 15 -6 14 -142 219 -149 225 -4 3 -9 10 -11 15 -8
20 -143 220 -151 223 -4 2 -8 8 -8 12 0 8 -81 132 -102 155 -6 6 -296 10 -829
11 l-820 1 -51 -76 c-29 -42 -55 -77 -60 -79 -4 -2 -8 -8 -8 -13 0 -8 -276
-427 -289 -439 -4 -3 -12 -17 -20 -32 -8 -15 -22 -37 -33 -47 -10 -11 -18 -23
-18 -26 0 -9 -83 -129 -92 -133 -5 -2 -8 -8 -8 -13 0 -9 -135 -214 -150 -229
-3 -3 -13 -18 -22 -35 -9 -16 -20 -31 -25 -32 -5 -2 -47 54 -93 124 -47 71
-87 130 -91 133 -3 3 -8 10 -10 15 -5 14 -142 219 -150 225 -3 3 -8 10 -10 15
-8 20 -143 220 -151 223 -4 2 -8 7 -8 11 0 6 -108 175 -138 216 -4 6 -19 27
-34 47 -16 20 -28 39 -28 42 0 8 -104 161 -112 164 -5 2 -8 8 -8 13 0 10 -62
103 -72 107 -5 2 -8 10 -8 18 0 8 -4 14 -10 14 -5 0 -10 5 -10 10 0 10 -38 69
-51 80 -3 3 -8 10 -10 15 -6 14 -142 219 -149 225 -4 3 -9 10 -11 15 -6 14
-142 219 -149 225 -4 3 -9 10 -11 15 -5 14 -142 219 -150 225 -3 3 -8 10 -10
15 -11 27 -100 153 -111 157 -7 3 -280 5 -606 4 -325 -1 -592 3 -592 7 0 5 -5
5 -12 1 -15 -10 -1587 -11 -1591 -2 -1 4 -7 4 -14 0z"/>
</g>
</svg>
