<?xml version="1.0" encoding="UTF-8"?>
<!DOCTYPE svg  PUBLIC '-//W3C//DTD SVG 1.1//EN'  'http://www.w3.org/Graphics/SVG/1.1/DTD/svg11.dtd'>
<svg clip-rule="evenodd" fill-rule="evenodd" stroke-linejoin="round" stroke-miterlimit="2" version="1.1" viewBox="0 0 1920 1080" xml:space="preserve" xmlns="http://www.w3.org/2000/svg" xmlns:serif="http://www.serif.com/">
    <rect width="1920" height="1080" fill="#121212"/>
    <g transform="matrix(2.0221 0 0 2.0221 -933.72 -550.94)">
        <g fill-rule="nonzero" opacity=".15">
            <path d="m1008 588-60 40 39 39 21-79z"/>
            <path d="m1136 716-63-163-65 35 128 128z"/>
            <path d="m948 628 18 118 21-79-39-39z"/>
            <path d="m987 667 149 49-128-128-21 79z" fill="#444"/>
            <path d="m829 509 30 130 89-11-119-119z"/>
            <path d="m948 628-106 94 124 24-18-118z" fill="#111"/>
            <path d="m981 461-33 167 60-40-27-127z" fill="#111"/>
            <path d="m1073 553-92-92 27 127 65-35z"/>
            <path d="m1096 776 40-60-149-49 109 109z" fill="#111"/>
            <path d="m859 639-17 83 106-94-89 11z"/>
            <path d="m1189 569-62-62-54 46 116 16z"/>
            <path d="m1073 553 54-46-146-46 92 92z" fill="#333"/>
            <path d="m965 845 131-69-130-30-1 99z" fill="#222"/>
            <path d="m966 746 130 30-109-109-21 79z" fill="#333"/>
            <path d="m842 722 77 77 47-53-124-24z" fill="#444"/>
            <path d="m876 456-47 53 119 119-72-172z" fill="#333"/>
            <path d="m726 706 45 45 71-29-116-16z" fill="#111"/>
            <path d="m981 461-105-5 72 172 33-167z" fill="#444"/>
            <path d="m1136 716 53-147-116-16 63 163z" fill="#444"/>
            <path d="m959 339-24 76 46 46-22-122z"/>
            <path d="m981 461-46-46-59 41 105 5z"/>
            <path d="m919 799 46 46 1-99-47 53z"/>
            <path d="m742 522 31 31 56-44-87 13z" fill="#111"/>
            <path d="m829 509-56 44 86 86-30-130z" fill="#222"/>
            <path d="m1198 778 27-73-89 11 62 62z"/>
            <path d="m1136 716 89-11-36-136-53 147z" fill="#111"/>
            <path d="m726 706 116 16 17-83-133 67z" fill="#333"/>
            <path d="m842 722-71 29 148 48-77-77z"/>
            <path d="m1160 840 38-62-102-2 64 64z"/>
            <path d="m1096 776 102 2-62-62-40 60z"/>
            <path d="m1279 559-55-55-35 65 90-10z" fill="#222"/>
            <path d="m1189 569 35-65-97 3 62 62z" fill="#111"/>
            <path d="m1127 507-24-124-122 78 146 46z" fill="#111"/>
            <path d="m1224 504-121-121 24 124 97-3z" fill="#333"/>
            <path d="m699 379 43 143 87-13-130-130z"/>
            <path d="m773 553-47 153 133-67-86-86z" fill="#222"/>
            <path d="m755 335 74 174 47-53-121-121z"/>
            <path d="m1115 895 45-55-64-64 19 119z" fill="#222"/>
            <path d="m655 535 71 171 47-153-118-18z"/>
            <path d="m965 845 150 50-19-119-131 69z" fill="#222"/>
            <path d="m848 928 71-129-148-48 77 177z" fill="#111"/>
            <path d="m1103 383-144-44 22 122 122-78z" fill="#111"/>
            <path d="m935 415-180-80 121 121 59-41z" fill="#111"/>
            <path d="m1198 778 61-39-34-34-27 73z"/>
            <path d="m1225 705 54-146-90 10 36 136z"/>
            <path d="m1361 841-102-102-61 39 163 63z" fill="#222"/>
            <path d="m1361 841-12-112-90 10 102 102z" fill="#111"/>
            <path d="m1349 729-70-170-54 146 124 24z" fill="#333"/>
            <path d="m718 898 130 30-77-177-53 147z" fill="#444"/>
            <path d="m1224 504-74-174-47 53 121 121z"/>
            <path d="m1103 383-129-129-15 85 144 44z" fill="#222"/>
            <path d="m1262 342-112-12 74 174 38-162z" fill="#222"/>
            <path d="m645 725 31 31 50-50-81 19z"/>
            <path d="m726 706-50 50 95-5-45-45z"/>
            <path d="m1150 330-10-10-37 63 47-53z"/>
            <path d="m614 494 41 41 87-13-128-28z" fill="#333"/>
            <path d="m742 522-87 13 118 18-31-31z"/>
            <path d="m595 575 50 150 81-19-131-131z" fill="#444"/>
            <path d="m676 756 42 142 53-147-95 5z" fill="#222"/>
            <path d="m1383 563-40-40-64 36 104 4z"/>
            <path d="m1279 559 64-36-119-19 55 55z"/>
            <path d="m1150 330 48-52-58 42 10 10z"/>
            <path d="m1140 320-166-66 129 129 37-63z" fill="#444"/>
            <path d="m959 339-204-4 180 80 24-76z" fill="#333"/>
            <path d="m860 240-105 95 204 4-99-99z" fill="#444"/>
            <path d="m1361 841-163-63 126 126 37-63z" fill="#333"/>
            <path d="m1259 739 90-10-124-24 34 34z"/>
            <path d="m755 335-56 44 130 130-74-174z" fill="#333"/>
            <path d="m633 913 85-15-42-142-43 157z"/>
            <path d="m1343 523-81-181-38 162 119 19z" fill="#444"/>
            <path d="m1140 320-13-113-153 47 166 66z" fill="#222"/>
            <path d="m699 379-85 115 128 28-43-143z" fill="#444"/>
            <path d="m655 535-60 40 131 131-71-171z" fill="#222"/>
            <path d="m614 494-19 81 60-40-41-41z"/>
            <path d="m1349 729 34-166-104-4 70 170z" fill="#444"/>
            <path d="m1343 523 96-104-177-77 81 181z" fill="#222"/>
            <path d="m1262 342-64-64-48 52 112 12z"/>
            <path d="m974 254-114-14 99 99 15-85z" fill="#111"/>
            <path d="m696 276-80 120 83-17-3-103z" fill="#111"/>
            <path d="m1324 904-126-126-38 62 164 64z" fill="#111"/>
            <path d="m1349 729 93-7-59-159-34 166z" fill="#222"/>
            <path d="m696 276 3 103 56-44-59-59z"/>
            <path d="m699 379-83 17-2 98 85-115z" fill="#222"/>
            <path d="m513 493 29 129 53-47-82-82z"/>
            <path d="m1198 278-71-71 13 113 58-42z" fill="#111"/>
            <path d="m1454 534-41-41-30 70 71-29z" fill="#333"/>
            <path d="m1383 563 30-70-70 30 40 40z"/>
            <path d="m513 493 82 82 19-81-101-1z" fill="#111"/>
            <path d="m595 575-53 47 103 103-50-150z" fill="#222"/>
            <path d="m645 725-94 6 125 25-31-31z"/>
            <path d="m542 622 9 109 94-6-103-103z"/>
            <path d="m753 233-57 43 59 59-2-102z" fill="#222"/>
            <path d="m860 240-107-7 2 102 105-95z" fill="#333"/>
            <path d="m510 790 123 123 43-157-166 34z" fill="#111"/>
            <path d="m1448 828-99-99 12 112 87-13z" fill="#222"/>
            <path d="m1448 828-6-106-93 7 99 99z" fill="#333"/>
            <path d="m1262 342 25-75-89 11 64 64z"/>
            <path d="m1198 278-26-126-45 55 71 71z"/>
            <path d="m1388 268-101-1-25 75 126-74z" fill="#222"/>
            <path d="m1515 695-61-161-71 29 132 132z" fill="#444"/>
            <path d="m1413 493 26-74-96 104 70-30z" fill="#111"/>
            <path d="m753 233-82-82 25 125 57-43z"/>
            <path d="m498 378 15 115 103-97-118-18z" fill="#333"/>
            <path d="m616 396-103 97 101 1 2-98z" fill="#111"/>
            <path d="m542 622-57 43 66 66-9-109z" fill="#333"/>
            <path d="m513 493-28 172 57-43-29-129z" fill="#444"/>
            <path d="m551 731-41 59 166-34-125-25z" fill="#111"/>
            <path d="m485 665 25 125 41-59-66-66z"/>
            <path d="m1293 173-95 105 89-11 6-94z" fill="#111"/>
            <path d="m1293 173-121-21 26 126 95-105z" fill="#444"/>
            <path d="m1439 419-51-151-126 74 177 77z" fill="#444"/>
            <path d="m1515 695-132-132 59 159 73-27z" fill="#111"/>
            <path d="m1498 378-110-110 51 151 59-41z" fill="#111"/>
            <path d="m564 244-66 134 118 18-52-152z" fill="#222"/>
            <path d="m564 244 52 152 80-120-132-32z" fill="#444"/>
            <path d="m671 151-107 93 132 32-25-125z" fill="#333"/>
            <path d="m351 531 134 134 28-172-162 38z" fill="#222"/>
            <path d="m485 665-65 35 90 90-25-125z" fill="#222"/>
            <path d="m421 801 30 30 59-41-89 11z"/>
            <path d="m420 700 1 101 89-11-90-90z" fill="#222"/>
            <path d="m633 913-123-123-65 135 188-12z" fill="#333"/>
            <path d="m445 925 65-135-59 41-6 94z" fill="#444"/>
            <path d="m513 193-16 84 67-33-51-51z"/>
            <path d="m564 244-67 33 1 101 66-134z" fill="#222"/>
            <path d="m498 378-127 73 142 42-15-115z" fill="#111"/>
            <path d="m1498 378 14-86-124-24 110 110z" fill="#444"/>
            <path d="m374 354-3 97 127-73-124-24z" fill="#222"/>
            <path d="m497 277-123 77 124 24-1-101z" fill="#444"/>
            <path d="m371 451-20 80 162-38-142-42z" fill="#444"/>
            <path d="m1512 292-28-128-96 104 124 24z" fill="#222"/>
            <path d="m393 273-19 81 123-77-104-4z" fill="#111"/>
            <path d="m414 194 83 83 16-84-99 1z" fill="#222"/>
            <path d="m414 194-21 79 104 4-83-83z" fill="#111"/>
        </g>
    </g>
    <g transform="matrix(-3.1702 -3.8823e-16 3.8823e-16 -3.1702 3556.6 2513)" serif:id="bk-0.14397608131189255">
        <g fill-rule="nonzero" opacity=".08">
            <path d="m1008 588-60 40 39 39 21-79z"/>
            <path d="m1136 716-63-163-65 35 128 128z"/>
            <path d="m948 628 18 118 21-79-39-39z"/>
            <path d="m987 667 149 49-128-128-21 79z" fill="#444"/>
            <path d="m829 509 30 130 89-11-119-119z"/>
            <path d="m948 628-106 94 124 24-18-118z" fill="#111"/>
            <path d="m981 461-33 167 60-40-27-127z" fill="#111"/>
            <path d="m1073 553-92-92 27 127 65-35z"/>
            <path d="m1096 776 40-60-149-49 109 109z" fill="#111"/>
            <path d="m859 639-17 83 106-94-89 11z"/>
            <path d="m1189 569-62-62-54 46 116 16z"/>
            <path d="m1073 553 54-46-146-46 92 92z" fill="#333"/>
            <path d="m965 845 131-69-130-30-1 99z" fill="#222"/>
            <path d="m966 746 130 30-109-109-21 79z" fill="#333"/>
            <path d="m842 722 77 77 47-53-124-24z" fill="#444"/>
            <path d="m876 456-47 53 119 119-72-172z" fill="#333"/>
            <path d="m726 706 45 45 71-29-116-16z" fill="#111"/>
            <path d="m981 461-105-5 72 172 33-167z" fill="#444"/>
            <path d="m1136 716 53-147-116-16 63 163z" fill="#444"/>
            <path d="m959 339-24 76 46 46-22-122z"/>
            <path d="m981 461-46-46-59 41 105 5z"/>
            <path d="m919 799 46 46 1-99-47 53z"/>
            <path d="m742 522 31 31 56-44-87 13z" fill="#111"/>
            <path d="m829 509-56 44 86 86-30-130z" fill="#222"/>
            <path d="m726 706 116 16 17-83-133 67z" fill="#333"/>
            <path d="m842 722-71 29 148 48-77-77z"/>
            <path d="m1160 840 38-62-102-2 64 64z"/>
            <path d="m1096 776 102 2-62-62-40 60z"/>
            <path d="m1127 507-24-124-122 78 146 46z" fill="#111"/>
            <path d="m1224 504-121-121 24 124 97-3z" fill="#333"/>
            <path d="m699 379 43 143 87-13-130-130z"/>
            <path d="m773 553-47 153 133-67-86-86z" fill="#222"/>
            <path d="m755 335 74 174 47-53-121-121z"/>
            <path d="m1115 895 45-55-64-64 19 119z" fill="#222"/>
            <path d="m655 535 71 171 47-153-118-18z"/>
            <path d="m965 845 150 50-19-119-131 69z" fill="#222"/>
            <path d="m848 928 71-129-148-48 77 177z" fill="#111"/>
            <path d="m1103 383-144-44 22 122 122-78z" fill="#111"/>
            <path d="m935 415-180-80 121 121 59-41z" fill="#111"/>
            <path d="m718 898 130 30-77-177-53 147z" fill="#444"/>
            <path d="m1224 504-74-174-47 53 121 121z"/>
            <path d="m645 725 31 31 50-50-81 19z"/>
            <path d="m726 706-50 50 95-5-45-45z"/>
            <path d="m614 494 41 41 87-13-128-28z" fill="#333"/>
            <path d="m742 522-87 13 118 18-31-31z"/>
            <path d="m595 575 50 150 81-19-131-131z" fill="#444"/>
            <path d="m676 756 42 142 53-147-95 5z" fill="#222"/>
            <path d="m755 335-56 44 130 130-74-174z" fill="#333"/>
            <path d="m633 913 85-15-42-142-43 157z"/>
            <path d="m699 379-85 115 128 28-43-143z" fill="#444"/>
            <path d="m655 535-60 40 131 131-71-171z" fill="#222"/>
            <path d="m614 494-19 81 60-40-41-41z"/>
            <path d="m699 379-83 17-2 98 85-115z" fill="#222"/>
            <path d="m513 493 29 129 53-47-82-82z"/>
            <path d="m513 493 82 82 19-81-101-1z" fill="#111"/>
            <path d="m595 575-53 47 103 103-50-150z" fill="#222"/>
            <path d="m645 725-94 6 125 25-31-31z"/>
            <path d="m542 622 9 109 94-6-103-103z"/>
            <path d="m510 790 123 123 43-157-166 34z" fill="#111"/>
            <path d="m498 378 15 115 103-97-118-18z" fill="#333"/>
            <path d="m616 396-103 97 101 1 2-98z" fill="#111"/>
            <path d="m542 622-57 43 66 66-9-109z" fill="#333"/>
            <path d="m513 493-28 172 57-43-29-129z" fill="#444"/>
            <path d="m551 731-41 59 166-34-125-25z" fill="#111"/>
            <path d="m485 665 25 125 41-59-66-66z"/>
        </g>
    </g>
    <g transform="matrix(3.1702 7.7647e-16 -7.7647e-16 3.1702 -2402.7 -784.91)" serif:id="bk-0.14397608131189255">
        <g opacity=".06">
            <path d="m1136 716-63-163-65 35 128 128z" fill-rule="nonzero"/>
            <path d="m829 509 30 130 89-11-119-119z" fill-rule="nonzero"/>
            <path d="m981 461-33 167 60-40-27-127z" fill="#111" fill-rule="nonzero"/>
            <path d="m1073 553-92-92 27 127 65-35z" fill-rule="nonzero"/>
            <path d="m1189 569-62-62-54 46 116 16z" fill-rule="nonzero"/>
            <path d="m1073 553 54-46-146-46 92 92z" fill="#333" fill-rule="nonzero"/>
            <path d="m876 456-47 53 119 119-72-172z" fill="#333" fill-rule="nonzero"/>
            <path d="m981 461-105-5 72 172 33-167z" fill="#444" fill-rule="nonzero"/>
            <path d="m1136 716 53-147-116-16 63 163z" fill="#444" fill-rule="nonzero"/>
            <path d="m959 339-24 76 46 46-22-122z" fill-rule="nonzero"/>
            <path d="m981 461-46-46-59 41 105 5z" fill-rule="nonzero"/>
            <path d="m742 522 31 31 56-44-87 13z" fill="#111" fill-rule="nonzero"/>
            <path d="m829 509-56 44 86 86-30-130z" fill="#222" fill-rule="nonzero"/>
            <path d="m1136 716 89-11-36-136-53 147z" fill="#111" fill-rule="nonzero"/>
            <path d="m1279 559-55-55-35 65 90-10z" fill="#222" fill-rule="nonzero"/>
            <path d="m1189 569 35-65-97 3 62 62z" fill="#111" fill-rule="nonzero"/>
            <path d="m1127 507-24-124-122 78 146 46z" fill="#111" fill-rule="nonzero"/>
            <path d="m1224 504-121-121 24 124 97-3z" fill="#333" fill-rule="nonzero"/>
            <path d="m699 379 43 143 87-13-130-130z" fill-rule="nonzero"/>
            <path d="m773 553-47 153 133-67-86-86z" fill="#222" fill-rule="nonzero"/>
            <path d="m755 335 74 174 47-53-121-121z" fill-rule="nonzero"/>
            <path d="m655 535 71 171 47-153-118-18z" fill-rule="nonzero"/>
            <path d="m1103 383-144-44 22 122 122-78z" fill="#111" fill-rule="nonzero"/>
            <path d="m935 415-180-80 121 121 59-41z" fill="#111" fill-rule="nonzero"/>
            <path d="m1225 705 54-146-90 10 36 136z" fill-rule="nonzero"/>
            <path d="m1349 729-70-170-54 146 124 24z" fill="#333" fill-rule="nonzero"/>
            <path d="m1224 504-74-174-47 53 121 121z" fill-rule="nonzero"/>
            <path d="m1103 383-129-129-15 85 144 44z" fill="#222" fill-rule="nonzero"/>
            <path d="m1262 342-112-12 74 174 38-162z" fill="#222" fill-rule="nonzero"/>
            <path d="m1150 330-10-10-37 63 47-53z" fill-rule="nonzero"/>
            <path d="m742 522-87 13 118 18-31-31z" fill-rule="nonzero"/>
            <path d="m1383 563-40-40-64 36 104 4z" fill-rule="nonzero"/>
            <path d="m1279 559 64-36-119-19 55 55z" fill-rule="nonzero"/>
            <path d="m1150 330 48-52-58 42 10 10z" fill-rule="nonzero"/>
            <path d="m1140 320-166-66 129 129 37-63z" fill="#444" fill-rule="nonzero"/>
            <path d="m959 339-204-4 180 80 24-76z" fill="#333" fill-rule="nonzero"/>
            <path d="m860 240-105 95 204 4-99-99z" fill="#444" fill-rule="nonzero"/>
            <path d="m755 335-56 44 130 130-74-174z" fill="#333" fill-rule="nonzero"/>
            <path d="m1343 523-81-181-38 162 119 19z" fill="#444" fill-rule="nonzero"/>
            <path d="m1140 320-13-113-153 47 166 66z" fill="#222" fill-rule="nonzero"/>
            <g transform="translate(-123.34 -8.2015)">
                <path d="m1140 320-13-113-153 47 166 66z" fill="#222" fill-rule="nonzero"/>
            </g>
            <path d="m1349 729 34-166-104-4 70 170z" fill="#444" fill-rule="nonzero"/>
            <path d="m1343 523 96-104-177-77 81 181z" fill="#222" fill-rule="nonzero"/>
            <path d="m1262 342-64-64-48 52 112 12z" fill-rule="nonzero"/>
            <path d="m974 254-114-14 99 99 15-85z" fill="#111" fill-rule="nonzero"/>
            <path d="m1198 278-71-71 13 113 58-42z" fill="#111" fill-rule="nonzero"/>
            <path d="m1383 563 30-70-70 30 40 40z" fill-rule="nonzero"/>
            <path d="m860 240-107-7 2 102 105-95z" fill="#333" fill-rule="nonzero"/>
            <path d="m1262 342 25-75-89 11 64 64z" fill-rule="nonzero"/>
            <path d="m1198 278-26-126-45 55 71 71z" fill-rule="nonzero"/>
            <path d="m1388 268-101-1-25 75 126-74z" fill="#222" fill-rule="nonzero"/>
            <path d="m1413 493 26-74-96 104 70-30z" fill="#111" fill-rule="nonzero"/>
            <path d="m1293 173-95 105 89-11 6-94z" fill="#111" fill-rule="nonzero"/>
            <path d="m1293 173-121-21 26 126 95-105z" fill="#444" fill-rule="nonzero"/>
            <path d="m1439 419-51-151-126 74 177 77z" fill="#444" fill-rule="nonzero"/>
            <path d="m1388 268-95-95-6 94 101 1z" fill="#333" fill-rule="nonzero"/>
            <path d="m1388 268 15-85-110-10 95 95z" fill="#111" fill-rule="nonzero"/>
        </g>
    </g>
</svg>
